# xmcd
#
# Track frame offsets:
#	150
#	14467
#	23407
#	33377
#	46562
#	60182
#	70905
#	83475
#	95340
#	107082
#	119827
#	135237
#	147570
#	159955
#	170737
#	183250
#	192180
#	204665
#
# Disc length: 2872 seconds
#
# Revision: 1
# Processed by: cddbd v1.5.2PL0 Copyright (c) Steve Scherf et al.
# Submitted via: audiograbber 1.83.01
#
DISCID=e50b3612
DTITLE=The Original Contry Cowboys - Trail Blazing Classics
DYEAR=1900
DGENRE=Country
TTITLE0=Jimmy Wakely - We'll Rest at the End of the Trail
TTITLE1=Gene Autry - Have I Told You Lately
TTITLE2=Tex Williams - Bummin' Around
TTITLE3=Roy Acuff and His Crazy Tennesseans - Great Speckled Bird
TTITLE4=Gene Autry - South of the Border
TTITLE5=Jimmy Wakely - I'm Casting My Lasso Towards the Sky
TTITLE6=Jimmie Rodgers - Any Old Time
TTITLE7=Gene Autry - Back in the Saddle Again
TTITLE8=Bob Willis and His Texas Playboys - New San Antonio Rose
TTITLE9=Roy Acuff and His Smokey Mountain Boys - Night Train to Memphis
TTITLE10=Tex Ritter - Hillbilly Heaven
TTITLE11=Gene Autry - It Makes No Difference Now
TTITLE12=Bill Monroe and His Bluegrass Boys - Mule Skinner Blues
TTITLE13=Jimmy Wakely - Along the Santa Fe Trail
TTITLE14=Roy Acuff and His Smokey Mountain Boys - Wreck on the Highway
TTITLE15=Sunset Carson - The Prodigal Son
TTITLE16=Jimmie Rodgers - Waiting for a Train
TTITLE17=Gene Autry - You are My Sunshine
EXTD=
EXTT0=
EXTT1=
EXTT2=
EXTT3=
EXTT4=
EXTT5=
EXTT6=
EXTT7=
EXTT8=
EXTT9=
EXTT10=
EXTT11=
EXTT12=
EXTT13=
EXTT14=
EXTT15=
EXTT16=
EXTT17=
PLAYORDER=
